<svg width="40" height="22" viewBox="0 0 40 22" fill="none" xmlns="http://www.w3.org/2000/svg">
<path d="M39.3019 21.1218C39.3169 21.1188 39.3316 21.1148 39.3464 21.1109C39.359 21.1077 39.3717 21.105 39.3841 21.1012C39.3986 21.0968 39.4127 21.0914 39.4268 21.0863C39.4393 21.0818 39.4519 21.0777 39.4643 21.0725C39.4776 21.067 39.4904 21.0605 39.5034 21.0544C39.516 21.0484 39.5288 21.0428 39.5412 21.0361C39.5536 21.0295 39.5652 21.022 39.5773 21.0148C39.5896 21.0074 39.6021 21.0005 39.6142 20.9924C39.627 20.9838 39.6389 20.9743 39.6513 20.9651C39.6617 20.9573 39.6724 20.9501 39.6825 20.9417C39.7013 20.9263 39.7191 20.9099 39.7364 20.893C39.7396 20.89 39.7429 20.8875 39.746 20.8844C39.7493 20.8811 39.752 20.8775 39.7552 20.8742C39.7718 20.8571 39.788 20.8395 39.8033 20.821C39.8122 20.8101 39.8199 20.7988 39.8283 20.7876C39.8368 20.776 39.8458 20.7648 39.8538 20.7527C39.8624 20.7399 39.8699 20.7266 39.8778 20.7134C39.8844 20.7023 39.8914 20.6914 39.8975 20.68C39.9047 20.6667 39.9107 20.6529 39.9171 20.6394C39.9228 20.6274 39.9288 20.6154 39.934 20.6031C39.9395 20.5898 39.9439 20.5762 39.9488 20.5627C39.9535 20.5495 39.9586 20.5364 39.9627 20.523C39.9668 20.5094 39.9698 20.4955 39.9733 20.4816C39.9767 20.468 39.9806 20.4546 39.9832 20.4408C39.9865 20.4245 39.9885 20.4081 39.9908 20.3916C39.9924 20.3801 39.9946 20.3686 39.9957 20.3569C39.9986 20.3281 40.0001 20.2993 40.0001 20.2704V1.72881C40.0001 1.24962 39.6119 0.861343 39.1327 0.861343H11.8074C11.7998 0.861343 11.7924 0.862268 11.7847 0.862499C11.7682 0.862962 11.7518 0.863656 11.7354 0.865044C11.7223 0.866085 11.7093 0.867589 11.6964 0.869324C11.6816 0.871175 11.6669 0.873372 11.6522 0.876032C11.6384 0.878461 11.6248 0.881353 11.6113 0.884476C11.5975 0.887714 11.5837 0.891184 11.5701 0.895117C11.5565 0.898934 11.5432 0.903097 11.5301 0.907492C11.5165 0.912119 11.503 0.916977 11.4897 0.922298C11.4771 0.927271 11.4647 0.93236 11.4525 0.937911C11.4388 0.944041 11.4253 0.950635 11.4119 0.957459C11.4004 0.963358 11.3892 0.969372 11.3781 0.975733C11.3647 0.983367 11.3515 0.991463 11.3384 0.999791C11.3277 1.00673 11.3171 1.0139 11.3067 1.02119C11.2945 1.02986 11.2823 1.03888 11.2704 1.04837C11.2595 1.05704 11.2489 1.06595 11.2384 1.07509C11.228 1.08422 11.2177 1.09336 11.2076 1.10308C11.1961 1.11407 11.1852 1.12552 11.1743 1.13708C11.1688 1.14287 11.1631 1.14795 11.1579 1.15385C11.1547 1.15732 11.1523 1.16114 11.1493 1.16461C11.1384 1.17722 11.1282 1.1904 11.1181 1.2037C11.1107 1.21342 11.103 1.22314 11.0961 1.23308C11.0871 1.24604 11.0787 1.25934 11.0704 1.27275C11.0636 1.28374 11.0565 1.29461 11.0503 1.30583C11.043 1.31879 11.0366 1.33209 11.0301 1.34539C11.024 1.35753 11.0178 1.36968 11.0124 1.38206C11.0067 1.39513 11.0017 1.40866 10.9967 1.42196C10.9918 1.43503 10.9867 1.44798 10.9824 1.46117C10.9781 1.47447 10.9746 1.488 10.9709 1.50153C10.9672 1.51541 10.9633 1.52918 10.9602 1.54317C10.9573 1.55624 10.9553 1.56954 10.953 1.58273C10.9505 1.59777 10.9479 1.6128 10.9461 1.62784C10.9446 1.64033 10.9439 1.65305 10.943 1.66578C10.9418 1.68197 10.9408 1.69816 10.9405 1.71447C10.9404 1.71921 10.9398 1.72384 10.9398 1.72858V7.0782C10.9398 7.55739 11.3281 7.94567 11.8073 7.94567C12.2865 7.94567 12.6748 7.55739 12.6748 7.0782V3.65517L20.3873 10.4835C20.347 10.5119 20.3083 10.5432 20.2722 10.5792L12.6747 18.1767V12.4759C12.6747 11.9967 12.2864 11.6085 11.8072 11.6085C11.328 11.6085 10.9397 11.9967 10.9397 12.4759V13.5359H6.4578C5.97861 13.5359 5.59033 13.9241 5.59033 14.4033C5.59033 14.8825 5.97861 15.2708 6.4578 15.2708H10.9397V20.271C10.9397 20.7502 11.328 21.1385 11.8072 21.1385H39.1324C39.161 21.1385 39.1896 21.137 39.218 21.1342C39.2313 21.1329 39.2442 21.1304 39.2572 21.1285C39.2723 21.1264 39.2871 21.1247 39.3019 21.1218ZM38.2651 18.1768L30.6675 10.5793C30.6626 10.5744 30.6574 10.5704 30.6524 10.5658L36.3642 5.71986C36.7294 5.40988 36.7743 4.86257 36.4643 4.49719C36.1546 4.13205 35.6073 4.08694 35.2417 4.39703L25.482 12.6773L14.0957 2.5964H38.2651V18.1768ZM21.4991 11.8062C21.561 11.7444 21.6112 11.6754 21.6504 11.6021L24.8949 14.4746C25.0589 14.6197 25.2643 14.6926 25.4699 14.6926C25.6696 14.6926 25.8691 14.624 26.0312 14.4866L29.3377 11.6813C29.3678 11.7253 29.4016 11.7673 29.4406 11.8062L37.0381 19.4038H13.9016L21.4991 11.8062Z" fill="white"/>
<path d="M0.867468 10.7408H15.5181C15.9973 10.7408 16.3855 10.3525 16.3855 9.87331C16.3855 9.39412 15.9973 9.00584 15.5181 9.00584H0.867468C0.388279 9.00584 0 9.39412 0 9.87331C0 10.3525 0.388279 10.7408 0.867468 10.7408Z" fill="white"/>
<path d="M2.38553 5.96037H8.96384C9.44303 5.96037 9.8313 5.57209 9.8313 5.0929C9.8313 4.61371 9.44303 4.22543 8.96384 4.22543H2.38553C1.90635 4.22543 1.51807 4.61371 1.51807 5.0929C1.51807 5.57209 1.90635 5.96037 2.38553 5.96037Z" fill="white"/>
<path d="M7.2289 17.1987H0.867468C0.388279 17.1987 0 17.587 0 18.0662C0 18.5454 0.388279 18.9336 0.867468 18.9336H7.2289C7.70809 18.9336 8.09637 18.5454 8.09637 18.0662C8.09637 17.587 7.70809 17.1987 7.2289 17.1987Z" fill="white"/>
</svg>
