<svg width="16" height="17" viewBox="0 0 16 17" fill="none" xmlns="http://www.w3.org/2000/svg">
<path fill-rule="evenodd" clip-rule="evenodd" d="M2.786 10.4155C4.324 10.4155 5.571 11.6945 5.571 13.2725C5.571 14.8495 4.324 16.1295 2.786 16.1295C1.247 16.1295 0 14.8495 0 13.2725C0 11.6945 1.247 10.4155 2.786 10.4155ZM2.786 0.129517C4.324 0.129517 5.57 1.40952 5.57 2.98652C5.57 4.56452 4.323 5.84352 2.785 5.84352C1.247 5.84352 0 4.56452 0 2.98652C0 1.40952 1.247 0.129517 2.786 0.129517ZM12.814 0.129517C14.353 0.129517 15.6 1.40952 15.6 2.98652C15.6 4.56452 14.353 5.84352 12.814 5.84352C11.276 5.84352 10.029 4.56452 10.029 2.98652C10.029 1.40952 11.276 0.129517 12.814 0.129517Z" fill="#F3603C"/>
<path opacity="0.5" d="M12.814 16.2435C14.3527 16.2435 15.6 14.9644 15.6 13.3865C15.6 11.8087 14.3527 10.5295 12.814 10.5295C11.2754 10.5295 10.028 11.8087 10.028 13.3865C10.028 14.9644 11.2754 16.2435 12.814 16.2435Z" fill="#F3603C"/>
</svg>
